<svg version="1.1" id="Layer_1" xmlns="http://www.w3.org/2000/svg" xmlns:xlink="http://www.w3.org/1999/xlink" x="0px" y="0px"
	 width="100%" viewBox="0 0 512 512" enable-background="new 0 0 512 512" xml:space="preserve">
<path fill="#013D78" opacity="1.000000" stroke="none" 
	d="
M279.000000,513.000000 
	C205.645767,513.000000 132.291550,513.000000 58.505135,512.611694 
	C60.486206,504.638336 62.831570,497.030945 65.326981,489.473083 
	C70.374977,474.184326 75.632332,458.963562 80.560341,443.636627 
	C84.622253,431.003387 88.194313,418.212860 92.239410,405.573944 
	C96.384758,392.621796 100.938934,379.800964 105.138893,366.865753 
	C111.700859,346.655914 118.058182,326.379669 124.611900,306.167114 
	C129.010239,292.602051 133.619293,279.105438 138.095215,265.565338 
	C142.365189,252.648209 146.592300,239.716888 150.824280,226.787247 
	C154.437576,215.747772 158.091949,204.721222 161.616776,193.653488 
	C165.393265,181.795547 168.895752,169.848907 172.778076,158.026443 
	C177.954071,142.264465 183.540268,126.636528 188.657364,110.856033 
	C194.177399,93.832809 199.239105,76.661255 204.720581,59.625141 
	C211.021255,40.042953 217.562973,20.538319 224.000000,0.999999 
	C297.354218,1.000000 370.708466,1.000000 444.536621,1.385711 
	C440.929779,14.109877 436.887604,26.461311 432.753357,38.781837 
	C430.323669,46.022526 427.566528,53.157085 425.273834,60.439236 
	C419.958832,77.321213 415.000916,94.316666 409.590240,111.167221 
	C404.039124,128.455078 398.006104,145.587799 392.397705,162.857803 
	C387.035767,179.368759 382.016541,195.990707 376.721375,212.523727 
	C371.674561,228.281250 366.490082,243.994888 361.321899,259.713287 
	C355.648163,276.969177 349.863037,294.188629 344.239014,311.460632 
	C338.855835,327.992828 333.674011,344.590607 328.299286,361.125610 
	C322.677856,378.419464 316.900116,395.662445 311.249115,412.946777 
	C304.896820,432.375977 298.580475,451.817078 292.304321,471.270996 
	C287.821808,485.165253 283.431458,499.089264 279.000000,513.000000 
z"/>
<path fill="#E22719" opacity="1.000000" stroke="none" 
	d="
M279.468658,513.000000 
	C283.431458,499.089264 287.821808,485.165253 292.304321,471.270996 
	C298.580475,451.817078 304.896820,432.375977 311.249115,412.946777 
	C316.900116,395.662445 322.677856,378.419464 328.299286,361.125610 
	C333.674011,344.590607 338.855835,327.992828 344.239014,311.460632 
	C349.863037,294.188629 355.648163,276.969177 361.321899,259.713287 
	C366.490082,243.994888 371.674561,228.281250 376.721375,212.523727 
	C382.016541,195.990707 387.035767,179.368759 392.397705,162.857803 
	C398.006104,145.587799 404.039124,128.455078 409.590240,111.167221 
	C415.000916,94.316666 419.958832,77.321213 425.273834,60.439236 
	C427.566528,53.157085 430.323669,46.022526 432.753357,38.781837 
	C436.887604,26.461311 440.929779,14.109877 445.005310,1.385711 
	C467.654480,1.000000 490.308960,1.000000 512.981689,1.000000 
	C512.981689,171.562744 512.981689,342.125488 512.981689,513.000000 
	C435.312714,513.000000 357.625031,513.000000 279.468658,513.000000 
z"/>
<path fill="#0066B2" opacity="1.000000" stroke="none" 
	d="
M223.531342,0.999999 
	C217.562973,20.538319 211.021255,40.042953 204.720581,59.625141 
	C199.239105,76.661255 194.177399,93.832809 188.657364,110.856033 
	C183.540268,126.636528 177.954071,142.264465 172.778076,158.026443 
	C168.895752,169.848907 165.393265,181.795547 161.616776,193.653488 
	C158.091949,204.721222 154.437576,215.747772 150.824280,226.787247 
	C146.592300,239.716888 142.365189,252.648209 138.095215,265.565338 
	C133.619293,279.105438 129.010239,292.602051 124.611900,306.167114 
	C118.058182,326.379669 111.700859,346.655914 105.138893,366.865753 
	C100.938934,379.800964 96.384758,392.621796 92.239410,405.573944 
	C88.194313,418.212860 84.622253,431.003387 80.560341,443.636627 
	C75.632332,458.963562 70.374977,474.184326 65.326981,489.473083 
	C62.831570,497.030945 60.486206,504.638336 58.036476,512.611694 
	C39.010498,513.000000 20.020998,513.000000 1.015749,513.000000 
	C1.015749,342.438141 1.015749,171.876282 1.015749,1.000000 
	C75.020599,1.000000 149.041641,1.000000 223.531342,0.999999 
z"/>
</svg>